<svg width="68" height="68" viewBox="0 0 68 68" fill="none" xmlns="http://www.w3.org/2000/svg">
<path fill-rule="evenodd" clip-rule="evenodd" d="M34 6.22266C26.4555 6.22266 25.5111 6.25599 22.5472 6.38932C19.5916 6.52543 17.5722 6.99488 15.8055 7.68099C13.9513 8.37778 12.2715 9.4708 10.8833 10.8838C9.47041 12.272 8.3774 13.9518 7.68053 15.806C6.99442 17.5727 6.52498 19.5921 6.38887 22.5477C6.25275 25.5115 6.2222 26.456 6.2222 34.0004C6.2222 41.5449 6.25275 42.4893 6.38887 45.4532C6.52498 48.4088 6.99442 50.4282 7.68053 52.1949C8.37748 54.049 9.47048 55.7288 10.8833 57.1171C12.2716 58.5299 13.9514 59.6229 15.8055 60.3199C17.5722 61.006 19.5916 61.4754 22.5472 61.6115C25.5111 61.7449 26.4555 61.7782 34 61.7782C41.5444 61.7782 42.4889 61.7449 45.4528 61.6115C48.4083 61.4754 50.4278 61.006 52.1944 60.3199C54.0486 59.623 55.7284 58.53 57.1166 57.1171C58.5295 55.7288 59.6226 54.049 60.3194 52.1949C61.0055 50.4282 61.475 48.4088 61.6111 45.4532C61.7444 42.4893 61.7778 41.5449 61.7778 34.0004C61.7778 26.456 61.7444 25.5115 61.6111 22.5477C61.475 19.5921 61.0055 17.5727 60.3194 15.806C59.6226 13.9518 58.5295 12.272 57.1166 10.8838C55.7284 9.4708 54.0486 8.37778 52.1944 7.68099C50.4278 6.99488 48.4083 6.52543 45.4528 6.38932C42.4889 6.25599 41.5444 6.22266 34 6.22266ZM34 11.2282C41.4166 11.2282 42.2944 11.256 45.2222 11.3893C47.9333 11.5143 49.4028 11.9643 50.3833 12.3449C51.6778 12.8504 52.6055 13.4532 53.5778 14.4227C54.55 15.3949 55.15 16.3227 55.6555 17.6171C56.0333 18.5977 56.4889 20.0671 56.6111 22.7754C56.7444 25.706 56.7722 26.581 56.7722 34.0004C56.7722 41.4171 56.7444 42.2949 56.6111 45.2227C56.4861 47.9338 56.0333 49.4032 55.6555 50.3838C55.2102 51.5904 54.5002 52.6819 53.5778 53.5782C52.6055 54.5504 51.6778 55.1504 50.3833 55.656C49.4028 56.0338 47.9333 56.4893 45.225 56.6115C42.2972 56.7449 41.4194 56.7727 34 56.7727C26.5833 56.7727 25.7028 56.7449 22.7778 56.6115C20.0666 56.4865 18.5972 56.0338 17.6166 55.656C16.4099 55.2108 15.3184 54.5008 14.4222 53.5782C13.4996 52.6821 12.7896 51.5905 12.3444 50.3838C11.9639 49.4032 11.5111 47.9338 11.3889 45.2254C11.2555 42.2949 11.2278 41.4199 11.2278 34.0004C11.2278 26.5838 11.2555 25.706 11.3889 22.7782C11.5139 20.0671 11.9639 18.5977 12.3444 17.6171C12.85 16.3227 13.4528 15.3949 14.4222 14.4227C15.3944 13.4504 16.3222 12.8504 17.6166 12.3449C18.5972 11.9643 20.0666 11.5115 22.775 11.3893C25.7055 11.256 26.5805 11.2282 34 11.2282ZM34 43.2588C31.5445 43.2588 29.1896 42.2833 27.4533 40.5471C25.7171 38.8108 24.7416 36.4559 24.7416 34.0004C24.7416 31.545 25.7171 29.1901 27.4533 27.4538C29.1896 25.7175 31.5445 24.7421 34 24.7421C36.4554 24.7421 38.8103 25.7175 40.5466 27.4538C42.2829 29.1901 43.2583 31.545 43.2583 34.0004C43.2583 36.4559 42.2829 38.8108 40.5466 40.5471C38.8103 42.2833 36.4554 43.2588 34 43.2588ZM34 19.7365C32.1268 19.7365 30.272 20.1055 28.5414 20.8223C26.8108 21.5391 25.2384 22.5898 23.9139 23.9143C22.5894 25.2389 21.5387 26.8113 20.8219 28.5419C20.105 30.2725 19.7361 32.1273 19.7361 34.0004C19.7361 35.8736 20.105 37.7284 20.8219 39.459C21.5387 41.1896 22.5894 42.762 23.9139 44.0865C25.2384 45.4111 26.8108 46.4617 28.5414 47.1786C30.272 47.8954 32.1268 48.2643 34 48.2643C37.783 48.2643 41.4111 46.7615 44.0861 44.0865C46.7611 41.4115 48.2639 37.7835 48.2639 34.0004C48.2639 30.2174 46.7611 26.5893 44.0861 23.9143C41.4111 21.2393 37.783 19.7365 34 19.7365ZM52.1611 19.1727C52.1611 19.6104 52.0749 20.0438 51.9074 20.4483C51.7398 20.8527 51.4943 21.2202 51.1848 21.5297C50.8752 21.8392 50.5078 22.0847 50.1034 22.2523C49.6989 22.4198 49.2655 22.506 48.8278 22.506C48.39 22.506 47.9566 22.4198 47.5521 22.2523C47.1477 22.0847 46.7803 21.8392 46.4707 21.5297C46.1612 21.2202 45.9157 20.8527 45.7482 20.4483C45.5806 20.0438 45.4944 19.6104 45.4944 19.1727C45.4944 18.2886 45.8456 17.4408 46.4707 16.8156C47.0959 16.1905 47.9437 15.8393 48.8278 15.8393C49.7118 15.8393 50.5597 16.1905 51.1848 16.8156C51.8099 17.4408 52.1611 18.2886 52.1611 19.1727Z" fill="white"/>
</svg>
