<svg width="68" height="68" viewBox="0 0 68 68" fill="none" xmlns="http://www.w3.org/2000/svg">
<path fill-rule="evenodd" clip-rule="evenodd" d="M44.3472 61.7782V40.2643H51.5694L52.65 31.881H44.3444V26.5282C44.3444 24.1004 45.0194 22.4449 48.5028 22.4449H52.9416V14.9449C50.7919 14.7161 48.6313 14.6048 46.4694 14.6115C40.0694 14.6115 35.6889 18.5199 35.6889 25.6949V31.881H28.4444V40.2643H35.6861V61.7782H9.28887C7.59442 61.7782 6.2222 60.406 6.2222 58.7115V9.28932C6.2222 7.59488 7.59442 6.22266 9.28887 6.22266H58.7111C60.4055 6.22266 61.7778 7.59488 61.7778 9.28932V58.7115C61.7778 60.406 60.4055 61.7782 58.7111 61.7782H44.3472Z" fill="white"/>
</svg>
