<svg width="68" height="68" viewBox="0 0 68 68" fill="none" xmlns="http://www.w3.org/2000/svg">
<path d="M23.675 56.9533C44.6389 56.9533 56.1083 39.5672 56.1083 24.5172C56.1083 24.0283 56.1083 23.5394 56.0861 23.0505C58.3197 21.432 60.247 19.4285 61.7778 17.1339C59.6935 18.0548 57.4844 18.6623 55.2222 18.9367C57.6057 17.5097 59.3902 15.2662 60.2444 12.6228C58.0042 13.9518 55.5516 14.8849 52.9944 15.3811C51.93 14.2438 50.6433 13.3372 49.2142 12.7175C47.785 12.0978 46.2438 11.7781 44.6861 11.7783C41.6618 11.7805 38.7621 12.9829 36.6236 15.1214C34.4851 17.2598 33.2828 20.1596 33.2806 23.1839C33.2806 24.0728 33.3917 24.9394 33.5694 25.7839C29.0358 25.5562 24.6007 24.3776 20.5522 22.3246C16.5036 20.2716 12.9321 17.3901 10.0694 13.8672C8.61467 16.3799 8.17058 19.3519 8.82732 22.1801C9.48406 25.0083 11.1924 27.4805 13.6056 29.095C11.7974 29.0324 10.0294 28.5452 8.44444 27.6728V27.8283C8.44689 30.4597 9.35758 33.0096 11.0227 35.0472C12.6878 37.0848 15.0052 38.4851 17.5833 39.0117C16.6062 39.2812 15.5969 39.4157 14.5833 39.4117C13.8472 39.4117 13.1361 39.345 12.4444 39.2117C13.1712 41.4777 14.5889 43.4596 16.4988 44.8793C18.4087 46.299 20.7151 47.0854 23.0944 47.1283C19.0571 50.3021 14.0688 52.0242 8.93333 52.0172C8.02222 52.0172 7.11111 51.9728 6.22222 51.8617C11.4353 55.1883 17.4909 56.955 23.675 56.9533Z" fill="white"/>
</svg>
