<svg width="68" height="68" viewBox="0 0 68 68" fill="none" xmlns="http://www.w3.org/2000/svg">
<path d="M61.7778 34.0004C61.7825 37.6592 61.0621 41.2826 59.6582 44.6614C58.2543 48.0401 56.1948 51.1071 53.5986 53.6852C51.0237 56.2555 47.9675 58.2933 44.6046 59.682C41.2418 61.0706 37.6383 61.7829 34 61.7782C18.6583 61.7782 6.22222 49.3421 6.22222 34.0004C6.21251 26.8779 8.94843 20.0257 13.8611 14.8685C16.4533 12.1332 19.5763 9.95566 23.0391 8.46904C26.5019 6.98243 30.2316 6.21805 34 6.22268C37.6383 6.21797 41.2418 6.93029 44.6046 8.31895C47.9675 9.7076 51.0237 11.7453 53.5986 14.3157C56.1948 16.8938 58.2543 19.9608 59.6582 23.3395C61.0621 26.7183 61.7825 30.3417 61.7778 34.0004V34.0004Z" stroke="white" stroke-width="4" stroke-linecap="round" stroke-linejoin="round"/>
<path d="M61.7778 34.0003C57.725 34.0003 46.5444 32.4725 36.5375 36.8655C25.6667 41.6391 17.7958 49.0433 14.3653 53.6489" stroke="white" stroke-width="4" stroke-linecap="round" stroke-linejoin="round"/>
<path d="M23.5833 8.24219C27.9306 12.2547 37.4167 22.4714 40.9444 32.6116C44.4722 42.7533 45.7778 55.2227 46.5833 58.7714" stroke="white" stroke-width="4" stroke-linecap="round" stroke-linejoin="round"/>
<path d="M8.30555 44.5742C10.7532 50.499 15.1676 55.3995 20.8056 58.4505M6.43611 30.5283C11.6833 30.845 25.5736 31.1297 34.4625 27.3339C43.3514 23.538 51 16.5561 53.6236 14.3408L6.43611 30.5283Z" stroke="white" stroke-width="4" stroke-linecap="round" stroke-linejoin="round"/>
<path d="M34 61.7782C37.6383 61.7829 41.2418 61.0706 44.6046 59.682C47.9675 58.2933 51.0237 56.2556 53.5986 53.6852M6.22222 34.0004C6.21251 26.8779 8.94843 20.0257 13.8611 14.8685L6.22222 34.0004ZM34 6.22268C30.2316 6.21805 26.5019 6.98243 23.0391 8.46904C19.5763 9.95565 16.4533 12.1332 13.8611 14.8685L34 6.22268ZM45.1111 8.53379C48.2745 9.91787 51.1526 11.8786 53.5986 14.3157C56.1948 16.8938 58.2543 19.9608 59.6582 23.3395C61.0621 26.7183 61.7825 30.3417 61.7778 34.0004C61.7778 37.4213 61.1597 40.6963 60.0278 43.7227L45.1111 8.53379Z" stroke="white" stroke-width="4" stroke-linecap="round" stroke-linejoin="round"/>
</svg>
